<svg width="564" height="803" viewBox="0 0 564 803" fill="none" xmlns="http://www.w3.org/2000/svg">
<path d="M461 800.998V760.923L469 738.882L474.5 726.859V711.33L481.5 698.807V685.281L492 676.765V659.233L501 647.711V636.69L506.5 628.174V613.647L521.5 607.636L523.5 585.094L531 577.58L537 562.051V549.026L548.5 536.002V518.469L553.5 508.951V496.929L558 490.917V477.392L555 474.887L560 467.874V455.351L558 450.341L563 440.824V428.3L560 423.792L563 418.281V408.263V390.73L553.5 379.709L542 378.206L539.5 359.171L530.5 357.668L447 317.593L443.5 307.073L406.5 282.527L393.5 278.52V265.996H388.5V229.929L390 225.921H419.5L425.5 210.893L429 192.358V182.34L435 174.826V155.79L429 149.278V134.75V117.218V97.681V75.1388L427 64.1182L421.5 53.5985V39.5722L413 28.0507L404.5 16.0281L395 5.50844L387.5 1H248.5L231 12.5216L215.5 26.0469C216 28.7186 211.2 34.3625 210 35.5647C208.8 36.767 201.667 46.9193 201.5 52.0957C199.5 54.4334 195.4 59.3092 195 60.1107C194.6 60.9122 189.833 71.1313 187.5 76.1407L184.5 94.6754L180 112.709V122.227L187.5 127.236V145.27V157.794L192 169.816V185.345L195 198.871L196.5 208.889L204.5 210.392L212 208.889L217 210.392V220.411L218.5 232.433L225 236.942V269.002L231.5 278.52L220 283.028L117 344.644L102.5 372.195L78 438.82L65.5 477.392V504.944L64 512.458L30 588.099L26.5 599.12L15.5 629.677L1 687.786V710.328L4.5 733.371L6 754.912L9 763.428L53 781.962L92 792.983C98.3333 793.985 111 795.688 111 794.486C111 793.284 119 795.655 123 796.991V802L461 800.998Z" fill="#D9D9D9" stroke="black"/>
</svg>
